# Blender v3.6.1 OBJ File: ''
# www.blender.org
mtllib target_tile.mtl
o Cylinder
v -0.005267 0.000000 -0.982585
v -0.021493 0.018681 -0.994835
v 0.010959 0.018681 -0.994835
v -0.005267 0.120128 -0.982585
v 0.010959 0.101447 -0.994835
v -0.021493 0.101447 -0.994835
v 0.850308 0.000000 -0.494437
v 0.852763 0.018681 -0.514544
v 0.868989 0.018681 -0.486605
v 0.850308 0.120128 -0.494437
v 0.868989 0.101447 -0.486605
v 0.852763 0.101447 -0.514544
v 0.850308 0.000000 0.481479
v 0.868989 0.018681 0.473647
v 0.852763 0.018681 0.501586
v 0.850308 0.120128 0.481479
v 0.852763 0.101447 0.501586
v 0.868989 0.101447 0.473647
v -0.005267 0.000000 0.969627
v 0.010959 0.018681 0.981877
v -0.021493 0.018681 0.981877
v -0.005267 0.120128 0.969627
v -0.021493 0.101447 0.981877
v 0.010959 0.101447 0.981877
v -0.860842 0.000000 0.481479
v -0.863298 0.018681 0.501586
v -0.879524 0.018681 0.473647
v -0.860842 0.120128 0.481479
v -0.879524 0.101447 0.473647
v -0.863298 0.101447 0.501586
v -0.860842 0.000000 -0.494437
v -0.879524 0.018681 -0.486605
v -0.863298 0.018681 -0.514544
v -0.860842 0.120128 -0.494437
v -0.863298 0.101447 -0.514544
v -0.879524 0.101447 -0.486605
vt 0.163573 0.577756
vt 0.163573 0.922244
vt 0.003093 0.922244
vt 0.003093 0.577756
vt 0.663573 0.577756
vt 0.663573 0.922244
vt 0.503093 0.922244
vt 0.503093 0.577756
vt 0.496907 0.577756
vt 0.496907 0.922245
vt 0.336427 0.922244
vt 0.336427 0.577756
vt 0.330212 0.577755
vt 0.330212 0.922244
vt 0.169788 0.922245
vt 0.169788 0.577756
vt 0.830212 0.577755
vt 0.830212 0.922244
vt 0.669788 0.922245
vt 0.669788 0.577756
vt 0.453405 0.367390
vt 0.250000 0.484826
vt 0.046595 0.367390
vt 0.046595 0.132610
vt 0.250000 0.015174
vt 0.453405 0.132610
vt 0.996907 0.577756
vt 0.996907 0.922245
vt 0.836427 0.922244
vt 0.836427 0.577756
vt 0.750000 0.484826
vt 0.746142 0.487773
vt 0.753858 0.487773
vt 0.253858 0.487773
vt 0.246142 0.487773
vt 0.953405 0.367390
vt 0.953989 0.372227
vt 0.957846 0.365506
vt 0.457846 0.365506
vt 0.453989 0.372227
vt 0.953405 0.132610
vt 0.957846 0.134494
vt 0.953989 0.127773
vt 0.453988 0.127773
vt 0.457846 0.134494
vt 0.750000 0.015174
vt 0.753858 0.012227
vt 0.746142 0.012227
vt 0.246142 0.012227
vt 0.253858 0.012227
vt 0.546595 0.132610
vt 0.546012 0.127773
vt 0.542154 0.134494
vt 0.042154 0.134494
vt 0.046011 0.127773
vt 0.546595 0.367390
vt 0.542154 0.365506
vt 0.546012 0.372227
vt 0.046011 0.372227
vt 0.042154 0.365506
vt -0.000000 0.922245
vt -0.000000 0.577756
vn -0.4956 0.0000 -0.8686
vn 0.4956 0.0000 0.8686
vn -0.4956 0.0000 0.8686
vn -1.0000 0.0000 0.0000
vn 1.0000 0.0000 0.0000
vn 0.0000 1.0000 0.0000
vn 0.4956 0.0000 -0.8686
vn 0.0000 -0.5484 -0.8362
vn 0.0000 0.5484 -0.8362
vn 0.7236 -0.5475 -0.4203
vn 0.7236 0.5475 -0.4203
vn 0.7236 -0.5475 0.4203
vn 0.7236 0.5475 0.4203
vn 0.0000 -0.5484 0.8362
vn 0.0000 0.5484 0.8362
vn -0.7236 -0.5475 0.4203
vn -0.7236 0.5475 0.4203
vn -0.7236 -0.5475 -0.4203
vn -0.7236 0.5475 -0.4203
vn 0.3504 -0.7071 -0.6142
vn 0.3504 0.7071 -0.6142
vn 0.0000 0.0000 -1.0000
vn 0.8647 0.0000 -0.5022
vn 0.7071 -0.7071 0.0000
vn 0.7071 0.7071 0.0000
vn 0.8647 0.0000 0.5022
vn 0.3504 -0.7071 0.6142
vn 0.3504 0.7071 0.6142
vn 0.0000 0.0000 1.0000
vn -0.3504 -0.7071 0.6142
vn -0.3504 0.7071 0.6142
vn -0.8647 0.0000 0.5022
vn -0.7071 -0.7071 0.0000
vn -0.7071 0.7071 0.0000
vn -0.8647 0.0000 -0.5022
vn -0.3504 -0.7071 -0.6142
vn -0.3504 0.7071 -0.6142
vn 0.0000 -1.0000 0.0000
usemtl Material.001
s off
f 33/1/1 35/2/1 6/3/1 2/4/1
f 15/5/2 17/6/2 24/7/2 20/8/2
f 21/9/3 23/10/3 30/11/3 26/12/3
f 27/13/4 29/14/4 36/15/4 32/16/4
f 9/17/5 11/18/5 18/19/5 14/20/5
f 10/21/6 4/22/6 34/23/6 28/24/6 22/25/6 16/26/6
f 3/27/7 5/28/7 12/29/7 8/30/7
f 1/31/8 2/32/8 3/33/8
f 4/22/9 5/34/9 6/35/9
f 7/36/10 8/37/10 9/38/10
f 10/21/11 11/39/11 12/40/11
f 13/41/12 14/42/12 15/43/12
f 16/26/13 17/44/13 18/45/13
f 19/46/14 20/47/14 21/48/14
f 22/25/15 23/49/15 24/50/15
f 25/51/16 26/52/16 27/53/16
f 28/24/17 29/54/17 30/55/17
f 31/56/18 32/57/18 33/58/18
f 34/23/19 35/59/19 36/60/19
f 3/33/20 8/37/20 7/36/20 1/31/20
f 12/40/21 5/34/21 4/22/21 10/21/21
f 2/4/22 6/3/22 5/61/22 3/62/22
f 11/18/23 9/17/23 8/30/23 12/29/23
f 9/38/24 14/42/24 13/41/24 7/36/24
f 18/45/25 11/39/25 10/21/25 16/26/25
f 17/6/26 15/5/26 14/20/26 18/19/26
f 15/43/27 20/47/27 19/46/27 13/41/27
f 24/50/28 17/44/28 16/26/28 22/25/28
f 23/10/29 21/9/29 20/8/29 24/7/29
f 21/48/30 26/52/30 25/51/30 19/46/30
f 30/55/31 23/49/31 22/25/31 28/24/31
f 29/14/32 27/13/32 26/12/32 30/11/32
f 27/53/33 32/57/33 31/56/33 25/51/33
f 36/60/34 29/54/34 28/24/34 34/23/34
f 35/2/35 33/1/35 32/16/35 36/15/35
f 33/58/36 2/32/36 1/31/36 31/56/36
f 6/35/37 35/59/37 34/23/37 4/22/37
f 1/31/38 7/36/38 13/41/38 19/46/38 25/51/38 31/56/38
