# Blender v3.6.1 OBJ File: ''
# www.blender.org
mtllib tree_cone_tall.mtl
o tree_cone_fall
v 0.048780 0.091770 0.048780
v -0.075046 0.000000 0.075046
v 0.075046 0.000000 0.075046
v -0.048780 0.091770 0.048780
v -0.048780 0.091770 -0.048780
v -0.075046 -0.000000 -0.075046
v 0.075046 -0.000000 -0.075046
v 0.048780 0.091770 -0.048780
v -0.094911 0.179013 0.013042
v -0.093777 0.204780 -0.007592
v -0.094911 0.179013 -0.007592
v -0.093777 0.204780 0.013042
v -0.043558 0.210482 0.019365
v -0.043558 0.210482 -0.013915
v -0.045386 0.168922 0.019365
v -0.045386 0.168922 -0.013915
v -0.028902 0.543629 -0.028902
v -0.028902 0.543629 0.028902
v -0.017916 0.356809 0.037121
v -0.011260 0.385967 0.094134
v -0.017916 0.390057 0.035658
v -0.011260 0.366018 0.095012
v 0.008708 0.385967 0.094134
v 0.015364 0.356809 0.037121
v 0.015364 0.390057 0.035658
v 0.008708 0.366018 0.095012
v 0.028902 0.543629 0.028902
v 0.028902 0.543629 -0.028902
v 0.000000 1.382285 -0.097170
v 0.030674 1.430333 -0.030674
v 0.068710 1.382285 -0.068710
v 0.000000 1.430333 -0.043380
v 0.000000 1.150781 0.192798
v -0.187264 0.696509 0.187264
v 0.000000 0.696509 0.264832
v -0.136329 1.150781 0.136328
v 0.136329 1.150781 -0.136329
v 0.264832 0.696509 -0.000000
v 0.187264 0.696509 -0.187264
v 0.192798 1.150781 -0.000000
v -0.145166 0.543629 -0.145166
v -0.264832 0.696509 -0.000000
v -0.187264 0.696509 -0.187264
v -0.205296 0.543629 -0.000000
v 0.000000 1.382285 0.097170
v -0.068710 1.382285 0.068709
v 0.000000 1.150781 -0.192798
v 0.068710 1.382285 0.068709
v 0.136329 1.150781 0.136328
v -0.145166 0.543629 0.145166
v 0.000000 0.696509 -0.264832
v 0.000000 0.543629 0.205296
v 0.030674 1.430333 0.030674
v 0.000000 1.430333 0.043379
v 0.145166 0.543629 -0.145166
v 0.000000 0.543629 -0.205296
v 0.187264 0.696509 0.187264
v 0.205296 0.543629 -0.000000
v 0.145166 0.543629 0.145166
v -0.192798 1.150781 -0.000000
v -0.068710 1.382285 -0.068710
v -0.136329 1.150781 -0.136329
v -0.030674 1.430333 -0.030674
v 0.097170 1.382285 -0.000000
v -0.043379 1.430333 -0.000000
v -0.097170 1.382285 -0.000000
v -0.030674 1.430333 0.030674
v 0.043379 1.430333 -0.000000
vt 0.834618 0.625317
vt 0.752920 0.563634
vt 0.852112 0.563634
vt 0.770143 0.625317
vt 0.401040 0.924647
vt 0.480599 0.862944
vt 0.499463 0.924647
vt 0.416625 0.862944
vt 0.519600 0.862298
vt 0.601619 0.924127
vt 0.502433 0.924127
vt 0.584071 0.862298
vt 0.622119 0.862299
vt 0.703778 0.924127
vt 0.604589 0.924127
vt 0.686592 0.862299
vt 0.276471 0.564110
vt 0.262941 0.581193
vt 0.262941 0.564152
vt 0.276471 0.581151
vt 0.283662 0.787935
vt 0.301434 0.821202
vt 0.279441 0.821202
vt 0.297298 0.787935
vt 0.734180 0.765823
vt 0.712210 0.798868
vt 0.706748 0.765823
vt 0.729218 0.798868
vt 0.378614 0.685782
vt 0.279441 0.784926
vt 0.279441 0.685744
vt 0.378614 0.784965
vt 0.712233 0.729788
vt 0.734158 0.762852
vt 0.706748 0.762852
vt 0.729228 0.729788
vt 0.308479 0.787935
vt 0.326396 0.820806
vt 0.304404 0.820806
vt 0.322113 0.787935
vt 0.457896 0.811920
vt 0.468497 0.564110
vt 0.436073 0.811920
vt 0.436159 0.784434
vt 0.430592 0.564110
vt 0.457982 0.784434
vt 0.706748 0.602290
vt 0.724274 0.563552
vt 0.728700 0.602290
vt 0.711103 0.563552
vt 0.710843 0.646917
vt 0.728676 0.685479
vt 0.706748 0.685479
vt 0.724000 0.646918
vt 0.812576 0.800605
vt 0.821553 0.924161
vt 0.812581 0.822594
vt 0.790587 0.822594
vt 0.790582 0.800605
vt 0.783351 0.924161
vt 0.711281 0.688449
vt 0.728738 0.726817
vt 0.706748 0.726809
vt 0.724475 0.688454
vt 0.532894 0.563552
vt 0.571093 0.563552
vt 0.635113 0.563552
vt 0.673313 0.563552
vt 0.276471 0.584164
vt 0.263278 0.597363
vt 0.263278 0.584167
vt 0.276471 0.597360
vt 0.706748 0.643947
vt 0.724278 0.605260
vt 0.728737 0.643940
vt 0.711085 0.605264
vt 0.363317 0.682773
vt 0.366066 0.634549
vt 0.398064 0.648018
vt 0.350553 0.650065
vt 0.626435 0.402403
vt 0.502433 0.103098
vt 0.626714 0.099645
vt 0.535958 0.404916
vt 0.465665 0.405099
vt 0.376410 0.099121
vt 0.499463 0.103149
vt 0.376083 0.402166
vt 0.784857 0.004224
vt 0.869336 0.099573
vt 0.752920 0.103106
vt 0.875103 0.001485
vt 0.625896 0.559315
vt 0.580295 0.560582
vt 0.124876 0.002965
vt 0.215175 0.157529
vt 0.125649 0.160465
vt 0.169997 0.001485
vt 0.671112 0.560582
vt 0.716150 0.404916
vt 0.998515 0.103106
vt 0.975241 0.004224
vt 0.248986 0.459480
vt 0.126011 0.463512
vt 0.529901 0.004162
vt 0.626243 0.001485
vt 0.350559 0.597090
vt 0.314195 0.564110
vt 0.363330 0.564110
vt 0.328624 0.597090
vt 0.220625 0.558018
vt 0.125295 0.561144
vt 0.001485 0.459480
vt 0.028763 0.558018
vt 0.251956 0.103149
vt 0.375764 0.001485
vt 0.279288 0.004608
vt 0.749949 0.103098
vt 0.721774 0.004162
vt 0.471153 0.004608
vt 0.966723 0.404945
vt 0.872681 0.402373
vt 0.074873 0.564114
vt 0.001507 0.741386
vt 0.001485 0.637543
vt 0.178681 0.564114
vt 0.116464 0.664507
vt 0.151749 0.679127
vt 0.252100 0.637543
vt 0.137142 0.714421
vt 0.101857 0.699802
vt 0.074925 0.814815
vt 0.178733 0.814815
vt 0.252121 0.741386
vt 0.079186 0.001485
vt 0.034994 0.157529
vt 0.787930 0.404945
vt 0.314181 0.682773
vt 0.328618 0.650065
vt 0.329720 0.561140
vt 0.375384 0.559662
vt 0.285481 0.405099
vt 0.313109 0.634549
vt 0.279441 0.648018
vt 0.279447 0.598866
vt 0.313111 0.612606
vt 0.366068 0.612606
vt 0.398070 0.598866
vt 0.836518 0.560664
vt 0.879232 0.559368
vt 0.420533 0.561140
vt 0.926630 0.560664
vn 0.0000 0.2752 0.9614
vn -0.9614 0.2752 -0.0000
vn 0.0000 0.2752 -0.9614
vn 0.9614 0.2752 -0.0000
vn -0.9990 0.0439 0.0000
vn -0.1128 0.9936 0.0000
vn -0.1255 0.0055 0.9921
vn 0.0000 -1.0000 0.0000
vn -0.1255 0.0055 -0.9921
vn -0.1996 -0.9799 0.0000
vn -0.9935 0.0050 0.1134
vn 0.9935 0.0050 0.1134
vn 0.0000 0.0439 0.9990
vn 0.0000 -0.9876 0.1571
vn 0.0000 0.0439 -0.9990
vn 0.9990 0.0439 0.0000
vn 0.0000 0.9976 0.0698
vn 0.2660 0.7189 -0.6422
vn -0.3786 0.1450 0.9141
vn 0.9141 0.1450 -0.3786
vn -0.8693 -0.3385 -0.3601
vn -0.3575 0.3565 0.8632
vn 0.3575 0.3565 -0.8632
vn 0.3575 0.3565 0.8632
vn -0.8693 -0.3385 0.3601
vn 0.3786 0.1450 -0.9141
vn -0.3601 -0.3385 0.8693
vn 0.2660 0.7189 0.6422
vn 0.3601 -0.3385 -0.8693
vn -0.3601 -0.3385 -0.8693
vn 0.8693 -0.3385 0.3601
vn 0.3601 -0.3385 0.8693
vn 0.8693 -0.3385 -0.3601
vn -0.9141 0.1450 0.3786
vn -0.3575 0.3565 -0.8632
vn -0.9141 0.1450 -0.3786
vn -0.2660 0.7189 -0.6422
vn 0.8632 0.3565 0.3575
vn -0.6422 0.7189 -0.2660
vn -0.6422 0.7189 0.2660
vn -0.3786 0.1450 -0.9141
vn 0.3786 0.1450 0.9141
vn 0.6422 0.7189 0.2660
vn -0.2660 0.7189 0.6422
vn -0.8632 0.3565 -0.3575
vn 0.6422 0.7189 -0.2660
vn 0.8632 0.3565 -0.3575
vn 0.0000 1.0000 0.0000
vn 0.9141 0.1450 0.3786
vn -0.8632 0.3565 0.3575
usemtl woodBirch
s 1
f 1/1/1 2/2/1 3/3/1
f 2/2/1 1/1/1 4/4/1
f 2/5/2 5/6/2 6/7/2
f 5/6/2 2/5/2 4/8/2
f 5/9/3 7/10/3 6/11/3
f 7/10/3 5/9/3 8/12/3
f 8/13/4 3/14/4 7/15/4
f 3/14/4 8/13/4 1/16/4
f 9/17/5 10/18/5 11/19/5
f 10/18/5 9/17/5 12/20/5
f 10/21/6 13/22/6 14/23/6
f 13/22/6 10/21/6 12/24/6
f 13/25/7 9/26/7 15/27/7
f 9/26/7 13/25/7 12/28/7
f 2/29/8 7/30/8 3/31/8
f 7/30/8 2/29/8 6/32/8
f 11/33/9 14/34/9 16/35/9
f 14/34/9 11/33/9 10/36/9
f 9/37/10 16/38/10 15/39/10
f 16/38/10 9/37/10 11/40/10
f 5/6/5 16/41/5 17/42/5
f 16/41/5 5/6/5 4/8/5
f 16/41/5 4/8/5 15/43/5
f 15/43/5 4/8/5 13/44/5
f 13/44/5 4/8/5 18/45/5
f 17/42/5 14/46/5 18/45/5
f 14/46/5 17/42/5 16/41/5
f 18/45/5 14/46/5 13/44/5
f 19/47/11 20/48/11 21/49/11
f 20/48/11 19/47/11 22/50/11
f 23/51/12 24/52/12 25/53/12
f 24/52/12 23/51/12 26/54/12
f 1/1/13 24/55/13 4/4/13
f 24/55/13 1/1/13 27/56/13
f 24/55/13 27/56/13 25/57/13
f 25/57/13 27/56/13 21/58/13
f 19/59/13 4/4/13 24/55/13
f 4/4/13 19/59/13 18/60/13
f 18/60/13 19/59/13 21/58/13
f 18/60/13 21/58/13 27/56/13
f 26/61/14 19/62/14 24/63/14
f 19/62/14 26/61/14 22/64/14
f 17/65/15 8/12/15 5/9/15
f 8/12/15 17/65/15 28/66/15
f 28/67/16 1/16/16 8/13/16
f 1/16/16 28/67/16 27/68/16
f 23/69/13 22/70/13 26/71/13
f 22/70/13 23/69/13 20/72/13
f 21/73/17 23/74/17 25/75/17
f 23/74/17 21/73/17 20/76/17
usemtl leafsFall
f 29/77/18 30/78/18 31/79/18
f 30/78/18 29/77/18 32/80/18
f 33/81/19 34/82/19 35/83/19
f 34/82/19 33/81/19 36/84/19
f 37/85/20 38/86/20 39/87/20
f 38/86/20 37/85/20 40/88/20
f 41/89/21 42/90/21 43/91/21
f 42/90/21 41/89/21 44/92/21
f 45/93/22 36/84/22 33/81/22
f 36/84/22 45/93/22 46/94/22
f 29/95/23 37/96/23 47/97/23
f 37/96/23 29/95/23 31/98/23
f 48/99/24 33/81/24 49/100/24
f 33/81/24 48/99/24 45/93/24
f 44/92/25 34/101/25 42/90/25
f 34/101/25 44/92/25 50/102/25
f 47/97/26 39/103/26 51/104/26
f 39/103/26 47/97/26 37/96/26
f 35/83/27 50/105/27 52/106/27
f 50/105/27 35/83/27 34/82/27
f 53/107/28 45/108/28 48/109/28
f 45/108/28 53/107/28 54/110/28
f 51/104/29 55/111/29 56/112/29
f 55/111/29 51/104/29 39/103/29
f 43/113/30 56/112/30 41/114/30
f 56/112/30 43/113/30 51/104/30
f 57/115/31 58/116/31 38/86/31
f 58/116/31 57/115/31 59/117/31
f 57/118/32 52/106/32 59/119/32
f 52/106/32 57/118/32 35/83/32
f 38/86/33 55/120/33 39/87/33
f 55/120/33 38/86/33 58/116/33
f 42/90/34 36/121/34 60/122/34
f 36/121/34 42/90/34 34/101/34
f 59/123/8 55/124/8 58/125/8
f 55/124/8 59/123/8 52/126/8
f 55/124/8 52/126/8 27/127/8
f 27/127/8 52/126/8 18/128/8
f 18/128/8 52/126/8 50/129/8
f 18/128/8 50/129/8 17/130/8
f 28/131/8 55/124/8 27/127/8
f 55/124/8 28/131/8 56/132/8
f 56/132/8 28/131/8 17/130/8
f 56/132/8 17/130/8 41/133/8
f 41/133/8 17/130/8 50/129/8
f 41/133/8 50/129/8 44/134/8
f 61/135/35 47/97/35 62/136/35
f 47/97/35 61/135/35 29/95/35
f 42/90/36 62/137/36 43/91/36
f 62/137/36 42/90/36 60/122/36
f 61/138/37 32/80/37 29/77/37
f 32/80/37 61/138/37 63/139/37
f 48/140/38 40/88/38 64/141/38
f 40/88/38 48/140/38 49/142/38
f 61/138/39 65/143/39 63/139/39
f 65/143/39 61/138/39 66/144/39
f 65/143/40 46/145/40 67/146/40
f 46/145/40 65/143/40 66/144/40
f 62/136/41 51/104/41 43/113/41
f 51/104/41 62/136/41 47/97/41
f 49/100/42 35/83/42 57/118/42
f 35/83/42 49/100/42 33/81/42
f 68/147/43 48/109/43 64/148/43
f 48/109/43 68/147/43 53/107/43
f 67/146/44 45/108/44 54/110/44
f 45/108/44 67/146/44 46/145/44
f 60/122/45 61/149/45 62/137/45
f 61/149/45 60/122/45 66/150/45
f 31/79/46 68/147/46 64/148/46
f 68/147/46 31/79/46 30/78/46
f 31/151/47 40/88/47 37/85/47
f 40/88/47 31/151/47 64/141/47
f 30/78/48 53/107/48 68/147/48
f 53/107/48 30/78/48 32/80/48
f 53/107/48 32/80/48 54/110/48
f 54/110/48 32/80/48 63/139/48
f 54/110/48 63/139/48 67/146/48
f 67/146/48 63/139/48 65/143/48
f 49/142/49 38/86/49 40/88/49
f 38/86/49 49/142/49 57/115/49
f 60/122/50 46/152/50 66/150/50
f 46/152/50 60/122/50 36/121/50
